<?xml version="1.0"?>
<svg xmlns="http://www.w3.org/2000/svg" width="484" height="474" viewBox="0 0 484 474" fill="none">
<path d="M246.555 121.615H156.998V137.305H246.555V121.615Z" fill="#F9FAFB"/>
<path d="M247.683 158.613H156.998V173.206H247.683V158.613Z" fill="#F9FAFB"/>
<path d="M192.834 99.1775H172.693V191.156H192.834V99.1775Z" fill="#F9FAFB"/>
<path d="M229.765 98.0475H212.976V192.254H229.765V98.0475Z" fill="#F9FAFB"/>
<path d="M336.884 303.724C337.762 303.299 338.853 303.239 339.823 303.542C340.459 303.755 340.944 304.119 341.307 304.605C341.58 303.815 342.034 303.299 342.549 302.935C341.974 302.783 341.459 302.45 341.125 301.934C340.61 301.144 340.55 300.082 340.974 299.262C341.277 298.686 341.762 298.322 342.398 298.17C341.247 296.531 341.792 295.013 342.64 294.194C343.489 293.374 344.852 292.949 345.852 293.586C347.034 291.249 348.609 291.31 349.245 291.462C350.518 291.735 351.548 293.04 351.548 294.406C351.548 295.134 351.336 295.711 350.972 296.106C351.336 296.166 351.669 296.288 351.942 296.531C352.154 296.713 352.306 296.956 352.457 297.259V293.313C352.457 290.521 350.457 289.064 348.458 289.064C347.094 289.064 345.882 289.762 345.155 290.946L345.034 291.128L344.852 291.037C343.973 290.582 342.701 290.946 342.156 291.765C341.853 292.221 341.792 292.737 342.004 293.253L342.156 293.617L341.762 293.526C341.61 293.495 341.459 293.495 341.277 293.495C340.095 293.495 338.792 294.194 338.096 295.256C337.611 295.984 337.126 297.198 337.793 298.868L337.883 299.111L337.611 299.171C336.399 299.384 335.884 300.416 335.793 301.296C335.641 302.359 336.096 303.36 336.884 303.724Z" fill="#FFCA00"/>
<path d="M351.487 318.294C351.094 318.021 350.548 317.99 349.882 318.264L349.367 318.446L349.579 317.93C350.306 316.26 349.942 314.864 348.579 314.257C347.336 313.68 345.791 313.984 345.367 314.894L344.943 314.682C345.549 313.407 347.427 313.195 348.761 313.802C349.003 313.923 349.245 314.075 349.457 314.257C350.185 314.105 350.669 313.377 350.791 312.648C350.912 312.041 350.791 311.313 350.306 311.07L350.518 310.645C351.154 310.948 351.427 311.798 351.275 312.739C351.124 313.528 350.639 314.348 349.851 314.621C350.397 315.319 350.639 316.321 350.185 317.626C350.791 317.505 351.306 317.565 351.73 317.869C352.002 318.051 352.215 318.324 352.396 318.658V299.93C352.396 298.382 352.124 297.35 351.578 296.834C351.306 296.561 350.942 296.47 350.457 296.5C350.185 296.683 349.912 296.804 349.609 296.865C348.7 297.047 347.852 296.652 347.518 295.893L347.942 295.711C348.185 296.288 348.821 296.561 349.488 296.409C350.185 296.258 351.003 295.62 351.003 294.315C351.003 293.162 350.154 292.069 349.094 291.826C347.942 291.583 346.852 292.342 346.125 293.951L346.003 294.224L345.761 294.011C344.973 293.313 343.701 293.678 342.943 294.406C342.125 295.195 341.731 296.561 342.974 298.079L343.277 298.443L342.792 298.473C342.155 298.504 341.64 298.807 341.368 299.354C341.034 300.021 341.065 300.902 341.489 301.569C341.853 302.146 342.489 302.45 343.216 302.419C343.489 302.298 343.731 302.237 343.913 302.176C344.185 302.116 344.488 302.055 344.761 302.025C344.155 301.144 344.307 300.021 344.822 299.293C345.337 298.534 346.367 297.957 347.73 298.534L347.549 298.959C346.458 298.473 345.609 298.959 345.216 299.536C344.761 300.203 344.64 301.266 345.337 301.994C346.518 302.025 347.579 302.45 347.852 303.117L347.427 303.299C347.155 302.662 345.519 302.207 344.004 302.601C343.155 302.814 341.883 303.391 341.58 305.03C341.58 305.06 341.61 305.06 341.61 305.09L341.55 305.121C341.489 305.485 341.459 305.91 341.519 306.365L341.065 306.396C341.004 305.91 341.034 305.485 341.095 305.09C340.701 304.362 340.095 303.998 339.61 303.815C338.732 303.512 337.671 303.603 336.884 304.058L336.853 303.998C336.096 304.362 335.914 305.242 336.035 305.91C336.187 306.578 336.702 307.276 337.762 307.276L338.641 307.245L338.005 307.67C337.187 308.217 336.884 309.492 337.247 310.736C337.641 312.102 338.671 312.952 340.004 312.982L340.641 313.012L340.126 313.407C339.489 313.862 339.247 314.5 339.459 315.137C339.641 315.744 340.186 316.139 340.762 316.139C341.034 316.139 341.307 316.048 341.58 315.896L342.61 315.319L341.853 316.23C341.216 317.019 341.065 317.99 341.459 318.81C342.034 320.024 343.549 320.631 345.216 320.297H345.246C345.307 320.206 345.397 320.145 345.488 320.085C344.307 319.751 343.913 319.053 343.761 318.628C343.519 317.899 343.731 317.049 344.276 316.503C344.731 316.048 345.307 315.896 345.852 316.078L345.7 316.533C345.337 316.412 344.913 316.533 344.61 316.837C344.246 317.201 343.973 317.839 344.216 318.476C344.458 319.144 345.155 319.599 346.246 319.751L347.336 319.903L346.306 320.206C345.943 320.328 345.7 320.51 345.549 320.722C345.761 322.847 347.579 324 349.245 324C350.094 324 350.851 323.697 351.396 323.181C351.972 322.634 352.275 321.785 352.336 320.813C352.366 319.599 352.033 318.688 351.487 318.294ZM343.095 312.405C342.792 312.405 342.489 312.345 342.186 312.254C340.853 311.768 340.247 310.281 340.247 310.22L340.671 310.038C340.671 310.038 341.216 311.373 342.337 311.798C343.004 312.041 343.731 311.95 344.549 311.495C345.337 311.07 345.761 310.341 345.7 309.492C345.64 308.763 345.216 308.095 344.67 307.883C344.125 307.67 343.549 307.852 342.974 308.429L342.64 308.095C343.58 307.185 344.428 307.306 344.822 307.458C345.549 307.731 346.094 308.551 346.155 309.492C346.155 309.552 346.155 309.643 346.155 309.704C348.548 310.402 349.882 309.461 350.336 308.308C350.76 307.215 350.488 305.728 349.245 305.151L348.882 304.969L349.215 304.726C350.245 304.028 350.306 303.117 349.912 302.48C349.609 301.994 349.003 301.691 348.427 302.055L348.185 301.66C349.003 301.144 349.912 301.569 350.336 302.237C350.791 302.966 350.791 304.058 349.821 304.908C351.033 305.697 351.306 307.306 350.821 308.49C350.397 309.522 349.427 310.432 347.73 310.432C347.246 310.432 346.731 310.341 346.125 310.19C345.973 310.918 345.488 311.556 344.761 311.95C344.185 312.254 343.61 312.405 343.095 312.405Z" fill="#FFCA00"/>
<path d="M368.697 303.724C367.818 303.299 366.727 303.239 365.758 303.542C365.122 303.755 364.637 304.119 364.273 304.605C364.001 303.815 363.546 303.299 363.031 302.935C363.607 302.783 364.122 302.45 364.455 301.934C364.97 301.144 365.031 300.082 364.607 299.262C364.304 298.686 363.819 298.322 363.183 298.17C364.334 296.531 363.789 295.013 362.94 294.194C362.092 293.374 360.728 292.949 359.729 293.586C358.547 291.249 356.971 291.31 356.335 291.462C355.063 291.735 354.032 293.04 354.032 294.406C354.032 295.134 354.245 295.711 354.608 296.106C354.245 296.166 353.911 296.288 353.639 296.531C353.426 296.713 353.275 296.956 353.123 297.259V293.313C353.123 290.521 355.123 289.064 357.123 289.064C358.486 289.064 359.698 289.762 360.425 290.946L360.547 291.128L360.728 291.037C361.607 290.582 362.88 290.946 363.425 291.765C363.728 292.221 363.788 292.737 363.576 293.253L363.425 293.617L363.819 293.526C363.97 293.495 364.122 293.495 364.304 293.495C365.485 293.495 366.788 294.194 367.485 295.256C367.97 295.984 368.454 297.198 367.788 298.868L367.697 299.111L367.97 299.171C369.182 299.384 369.697 300.416 369.788 301.296C369.939 302.359 369.485 303.36 368.697 303.724Z" fill="#FFCA00"/>
<path d="M353.184 320.935C353.245 321.936 353.548 322.756 354.123 323.302C354.669 323.849 355.426 324.122 356.275 324.122C357.941 324.122 359.759 322.968 359.971 320.844C359.819 320.631 359.577 320.449 359.213 320.328L358.183 320.024L359.274 319.872C360.365 319.721 361.062 319.265 361.304 318.597C361.516 317.96 361.243 317.323 360.91 316.958C360.577 316.625 360.183 316.533 359.819 316.655L359.668 316.2C360.213 316.017 360.789 316.169 361.243 316.624C361.789 317.171 362.001 318.051 361.759 318.749C361.607 319.174 361.213 319.842 360.032 320.206C360.122 320.267 360.213 320.358 360.274 320.419H360.304C361.971 320.783 363.486 320.145 364.061 318.931C364.455 318.081 364.304 317.11 363.667 316.351L362.91 315.441L363.94 316.017C364.213 316.169 364.485 316.26 364.758 316.26C365.364 316.26 365.879 315.866 366.061 315.259C366.273 314.621 366.031 313.984 365.394 313.528L364.879 313.134L365.516 313.104C366.849 313.073 367.849 312.223 368.273 310.857C368.636 309.613 368.333 308.338 367.515 307.792L366.879 307.367L367.758 307.397C368.818 307.397 369.333 306.699 369.485 306.031C369.636 305.364 369.454 304.483 368.667 304.119L368.636 304.18C367.849 303.724 366.788 303.664 365.909 303.937C365.425 304.089 364.788 304.453 364.425 305.212C364.485 305.606 364.516 306.031 364.455 306.517L364.001 306.487C364.031 306.001 364.031 305.606 363.97 305.242L363.91 305.212C363.91 305.181 363.94 305.181 363.94 305.151C363.607 303.512 362.334 302.935 361.516 302.723C360.001 302.328 358.365 302.784 358.092 303.421L357.668 303.239C357.941 302.571 359.001 302.146 360.183 302.116C360.88 301.387 360.789 300.325 360.304 299.657C359.88 299.05 359.062 298.595 357.971 299.08L357.789 298.656C359.153 298.079 360.183 298.656 360.698 299.414C361.213 300.143 361.365 301.266 360.759 302.146C361.031 302.176 361.334 302.207 361.607 302.298C361.789 302.359 362.031 302.419 362.304 302.541C363.061 302.571 363.667 302.268 364.031 301.691C364.455 301.053 364.485 300.143 364.152 299.475C363.879 298.929 363.364 298.625 362.728 298.595L362.243 298.564L362.546 298.2C363.789 296.683 363.395 295.317 362.577 294.528C361.819 293.769 360.547 293.435 359.759 294.133L359.516 294.345L359.395 294.072C358.638 292.464 357.577 291.705 356.426 291.948C355.335 292.19 354.517 293.283 354.517 294.436C354.517 295.742 355.335 296.379 356.032 296.531C356.729 296.683 357.335 296.409 357.577 295.833L358.002 296.015C357.668 296.804 356.82 297.199 355.911 296.986C355.608 296.925 355.335 296.804 355.063 296.622C354.578 296.592 354.214 296.683 353.942 296.956C353.396 297.441 353.123 298.473 353.123 300.052V318.78C353.305 318.446 353.517 318.172 353.79 317.99C354.214 317.687 354.729 317.626 355.335 317.748C354.881 316.412 355.123 315.41 355.669 314.743C354.881 314.439 354.396 313.62 354.245 312.861C354.063 311.92 354.366 311.07 355.002 310.766L355.214 311.191C354.729 311.434 354.608 312.163 354.729 312.77C354.85 313.468 355.335 314.227 356.062 314.378C356.275 314.196 356.517 314.045 356.759 313.923C358.092 313.316 360.001 313.528 360.577 314.803L360.153 315.016C359.729 314.105 358.183 313.802 356.941 314.378C355.578 314.985 355.214 316.382 355.941 318.051L356.153 318.567L355.638 318.385C354.972 318.142 354.426 318.142 354.032 318.415C353.517 318.688 353.214 319.599 353.184 320.935ZM360.789 311.92C360.062 311.525 359.577 310.888 359.426 310.159C358.85 310.311 358.305 310.402 357.82 310.402C356.153 310.402 355.153 309.492 354.729 308.46C354.245 307.276 354.517 305.667 355.729 304.878C354.729 304.028 354.729 302.935 355.214 302.207C355.638 301.539 356.517 301.144 357.365 301.63L357.123 302.025C356.547 301.66 355.941 301.964 355.638 302.45C355.244 303.057 355.305 303.998 356.335 304.696L356.668 304.939L356.305 305.121C355.063 305.697 354.79 307.185 355.214 308.277C355.669 309.431 357.002 310.372 359.395 309.674C359.395 309.613 359.395 309.552 359.395 309.461C359.456 308.52 360.001 307.701 360.728 307.428C361.122 307.276 361.971 307.154 362.91 308.065L362.577 308.399C362.001 307.852 361.425 307.67 360.88 307.852C360.304 308.065 359.88 308.733 359.85 309.461C359.789 310.311 360.213 311.04 361.001 311.464C361.819 311.889 362.546 312.011 363.213 311.768C364.364 311.343 364.879 310.038 364.879 310.008L365.303 310.19C365.273 310.25 364.697 311.707 363.364 312.223C363.092 312.314 362.789 312.375 362.455 312.375C361.94 312.405 361.365 312.254 360.789 311.92Z" fill="#FFCA00"/>
<path d="M361.031 336.202H344.428V335.11C344.428 328.675 341.762 325.032 338.944 321.147C335.763 316.776 332.49 312.254 332.49 303.755C332.49 292.403 341.701 283.175 353.033 283.175C364.364 283.175 373.575 292.403 373.575 303.755C373.575 307.063 372.787 310.25 371.242 313.225C369.969 316.351 368.212 318.78 366.515 321.147C363.698 325.032 361.031 328.705 361.031 335.14V336.202V336.202ZM346.609 334.047H358.911C359.183 327.582 362.031 323.666 364.788 319.872C366.425 317.626 368.121 315.289 369.303 312.375L369.364 312.284C370.757 309.613 371.454 306.76 371.454 303.755C371.454 293.587 363.213 285.331 353.063 285.331C342.913 285.331 334.672 293.587 334.672 303.755C334.672 311.556 337.762 315.775 340.732 319.872C343.458 323.666 346.306 327.552 346.609 334.047Z" fill="#FAFAFC"/>
<path d="M363.879 348.161C363.879 350.741 361.759 352.866 359.183 352.866H347.064C344.488 352.866 342.368 350.741 342.368 348.161V338.813C342.368 336.233 344.488 334.108 347.064 334.108H359.183C361.759 334.108 363.879 336.233 363.879 338.813V348.161Z" fill="#9F9C9B"/>
<path d="M359.183 352.866C361.759 352.866 363.88 350.741 363.88 348.161V338.813C363.88 336.233 361.759 334.108 359.183 334.108H353.033V352.866H359.183Z" fill="#FAFAFC"/>
<path d="M362.668 336.688H343.549V338.57H362.668V336.688Z" fill="#9F9C9B"/>
<path d="M362.668 340.603H343.549V342.485H362.668V340.603Z" fill="#9F9C9B"/>
<path d="M362.668 344.549H343.549V346.431H362.668V344.549Z" fill="#9F9C9B"/>
<path d="M362.668 348.495H343.549V350.377H362.668V348.495Z" fill="#9F9C9B"/>
<path d="M352.427 280.686C351.821 280.686 351.336 280.201 351.336 279.594V271.459C351.336 270.852 351.821 270.366 352.427 270.366C353.033 270.366 353.518 270.852 353.518 271.459V279.594C353.487 280.201 353.002 280.686 352.427 280.686Z" fill="#F8F6FB"/>
<path d="M385.149 304.665H377.029C376.423 304.665 375.938 304.18 375.938 303.573C375.938 302.966 376.423 302.48 377.029 302.48H385.149C385.755 302.48 386.24 302.966 386.24 303.573C386.209 304.18 385.725 304.665 385.149 304.665Z" fill="#F8F6FB"/>
<path d="M328.491 305.333H320.371C319.765 305.333 319.28 304.848 319.28 304.24C319.28 303.633 319.765 303.148 320.371 303.148H328.491C329.097 303.148 329.582 303.633 329.582 304.24C329.551 304.848 329.067 305.333 328.491 305.333Z" fill="#F8F6FB"/>
<path d="M335.338 288.062C335.066 288.062 334.793 287.971 334.581 287.759L328.855 282.022C328.43 281.597 328.43 280.899 328.855 280.474C329.279 280.049 329.976 280.049 330.4 280.474L336.126 286.211C336.55 286.636 336.55 287.334 336.126 287.759C335.914 287.941 335.611 288.062 335.338 288.062Z" fill="#F8F6FB"/>
<path d="M369.667 287.577C369.394 287.577 369.121 287.486 368.909 287.273C368.485 286.848 368.485 286.15 368.909 285.725L374.635 279.988C375.06 279.563 375.756 279.563 376.181 279.988C376.605 280.413 376.605 281.111 376.181 281.536L370.454 287.273C370.242 287.455 369.939 287.577 369.667 287.577Z" fill="#F8F6FB"/>
<g filter="url(#filter0_f)">
<path d="M130.863 49.5562C135.117 44.2293 138.017 40 145.204 40C152.1 40 157.417 46.6506 157.417 53.3012C157.417 57.821 154.485 61.5337 152.1 64.7299L123.451 102.47C116.554 111.51 116.554 112.027 116.554 123.197V163.585C116.554 174.755 116.554 175.272 123.451 184.312L151.294 221.277C153.937 224.99 157.385 228.993 157.385 233.513C157.385 240.971 151.81 246.814 144.656 246.814C138.275 246.814 135.375 242.843 131.669 238.324L105.404 205.91C93.7383 191.543 90 182.245 90 163.65V123.197C90 104.86 93.706 95.3033 105.404 80.9367L130.863 49.5562Z" fill="#FFE600"/>
</g>
<path d="M130.863 49.5562C135.117 44.2293 138.017 40 145.204 40C152.1 40 157.417 46.6506 157.417 53.3012C157.417 57.821 154.485 61.5337 152.1 64.7299L123.451 102.47C116.554 111.51 116.554 112.027 116.554 123.197V163.585C116.554 174.755 116.554 175.272 123.451 184.312L151.294 221.277C153.937 224.99 157.385 228.993 157.385 233.513C157.385 240.971 151.81 246.814 144.656 246.814C138.275 246.814 135.375 242.843 131.669 238.324L105.404 205.91C93.7383 191.543 90 182.245 90 163.65V123.197C90 104.86 93.706 95.3033 105.404 80.9367L130.863 49.5562Z" fill="#FFCA00"/>
<g filter="url(#filter1_f)">
<path d="M303.596 80.9367C315.262 95.3033 319 104.86 319 123.197V163.585C319 182.181 315.294 191.479 303.596 205.845L277.331 238.259C273.625 242.779 270.693 246.75 264.344 246.75C257.19 246.75 251.615 240.906 251.615 233.449C251.615 228.929 255.063 224.958 257.706 221.213L285.549 184.279C292.445 175.24 292.446 174.723 292.446 163.553V123.197C292.446 112.027 292.445 111.51 285.549 102.47L256.9 64.7299C254.515 61.5338 251.583 57.821 251.583 53.3012C251.583 46.6506 256.9 40 263.796 40C270.951 40 273.883 44.2616 278.137 49.5562L303.596 80.9367Z" fill="#FFCA00"/>
</g>
<path d="M303.596 80.9367C315.262 95.3033 319 104.86 319 123.197V163.585C319 182.181 315.294 191.479 303.596 205.845L277.331 238.259C273.625 242.779 270.693 246.75 264.344 246.75C257.19 246.75 251.615 240.906 251.615 233.449C251.615 228.929 255.063 224.958 257.706 221.213L285.549 184.279C292.445 175.24 292.446 174.723 292.446 163.553V123.197C292.446 112.027 292.445 111.51 285.549 102.47L256.9 64.7299C254.515 61.5338 251.583 57.821 251.583 53.3012C251.583 46.6506 256.9 40 263.796 40C270.951 40 273.883 44.2616 278.137 49.5562L303.596 80.9367Z" fill="#FFCA00"/>
<path d="M118.28 266.743V286.867H136.429V301.952H118.159V332.548C118.159 339.287 121.613 342.595 126.703 342.595C129.248 342.595 132.157 341.745 134.581 340.44L139.126 355.374C134.46 357.377 130.582 358.257 125.643 358.379C111.372 358.955 102.041 350.183 102.041 332.518V301.952H89.7697V286.867H102.041V268.625L118.28 266.743Z" fill="#F9F5F7"/>
<path d="M162.425 328.39C163.486 337.162 170.575 343.475 182.028 343.475C188.027 343.475 195.905 341.047 199.632 336.858L210.024 347.907C203.086 355.677 191.754 359.411 181.755 359.411C159.092 359.411 145.61 344.325 145.61 321.621C145.61 300.07 159.214 284.56 180.544 284.56C202.54 284.56 216.296 299.221 213.751 328.39H162.425V328.39ZM198.177 313.881C197.117 304.684 190.451 300.101 181.119 300.101C172.302 300.101 165.122 304.684 162.728 313.881H198.177Z" fill="#F9F5F7"/>
<path d="M242.988 286.715V323.776C242.988 334.552 248.442 342.747 258.865 342.747C268.863 342.747 275.68 333.702 275.68 322.926V286.715H291.829V357.681H277.286L276.226 348.059C269.409 355.252 263.167 358.682 253.956 358.682C238.232 358.682 226.749 345.904 226.749 323.928V286.715H242.988Z" fill="#F9F5F7"/>
<path d="M100.677 471.626V417.173H88.4062V401.814H100.677V397.079C100.677 378.108 112.554 369.336 125.764 369.336C131.49 369.336 137.49 371.339 142.822 375.073L136.823 388.155C133.369 385.727 130.157 384.422 126.825 384.422C121.219 384.422 116.947 388.459 116.947 397.079V401.814H136.278V417.173H116.947V471.626H100.677Z" fill="#F9F5F7"/>
<path d="M165.758 400.782V437.843C165.758 448.618 171.212 456.814 181.634 456.814C191.633 456.814 198.45 447.769 198.45 436.993V400.782H214.599V471.747H200.056L198.995 462.126C192.208 469.319 185.937 472.749 176.726 472.749C161.001 472.749 149.518 459.971 149.518 437.995V400.782H165.758Z" fill="#F9F5F7"/>
<path d="M251.926 380.81V400.934H270.075V416.019H251.805V446.615C251.805 453.353 255.259 456.662 260.349 456.662C262.894 456.662 265.803 455.812 268.227 454.507L272.772 469.441C268.106 471.444 264.228 472.324 259.289 472.446C245.018 473.022 235.687 464.25 235.687 446.585V415.989H223.416V400.903H235.687V382.661L251.926 380.81Z" fill="#F9F5F7"/>
<path d="M298.859 400.782V437.843C298.859 448.618 304.312 456.814 314.735 456.814C324.733 456.814 331.55 447.769 331.55 436.993V400.782H347.7V471.747H333.156L332.096 462.126C325.279 469.319 319.037 472.749 309.827 472.749C294.102 472.749 282.619 459.971 282.619 437.995V400.782H298.859Z" fill="#F9F5F7"/>
<path d="M377.15 400.782L378.361 408.977C383.421 400.205 390.238 398.931 396.904 398.931C403.691 398.931 410.235 401.814 413.841 405.669L406.509 420.906C403.176 417.901 400.116 416.323 394.783 416.323C386.239 416.323 378.392 421.21 378.392 434.292V471.656H362.122V400.843H377.15V400.782Z" fill="#F9F5F7"/>
<path d="M483.709 436.265C483.709 456.662 470.771 473.174 449.441 473.174C428.111 473.174 415.295 456.662 415.295 436.265C415.295 416.019 428.354 399.355 449.29 399.355C470.226 399.355 483.709 416.019 483.709 436.265ZM431.565 436.265C431.565 447.04 437.564 457.087 449.441 457.087C461.318 457.087 467.317 447.04 467.317 436.265C467.317 425.641 460.379 415.291 449.441 415.291C437.686 415.291 431.565 425.641 431.565 436.265Z" fill="#F9F5F7"/>
<defs>
<filter id="filter0_f" x="0" y="-50" width="247.417" height="386.814" filterUnits="userSpaceOnUse" color-interpolation-filters="sRGB">
<feFlood flood-opacity="0" result="BackgroundImageFix"/>
<feBlend mode="normal" in="SourceGraphic" in2="BackgroundImageFix" result="shape"/>
<feGaussianBlur stdDeviation="45" result="effect1_foregroundBlur"/>
</filter>
<filter id="filter1_f" x="187.583" y="-24" width="195.417" height="334.75" filterUnits="userSpaceOnUse" color-interpolation-filters="sRGB">
<feFlood flood-opacity="0" result="BackgroundImageFix"/>
<feBlend mode="normal" in="SourceGraphic" in2="BackgroundImageFix" result="shape"/>
<feGaussianBlur stdDeviation="32" result="effect1_foregroundBlur"/>
</filter>
</defs>
</svg>
